<?xml version="1.0" encoding="UTF-8" standalone="no"?>
<!-- Created with Inkscape (http://www.inkscape.org/) -->

<svg
   xmlns:dc="http://purl.org/dc/elements/1.1/"
   xmlns:cc="http://creativecommons.org/ns#"
   xmlns:rdf="http://www.w3.org/1999/02/22-rdf-syntax-ns#"
   xmlns:svg="http://www.w3.org/2000/svg"
   xmlns="http://www.w3.org/2000/svg"
   xmlns:sodipodi="http://sodipodi.sourceforge.net/DTD/sodipodi-0.dtd"
   xmlns:inkscape="http://www.inkscape.org/namespaces/inkscape"
   width="210mm"
   height="297mm"
   viewBox="0 0 210 297"
   version="1.1"
   id="svg866"
   inkscape:version="0.92.3 (2405546, 2018-03-11)"
   sodipodi:docname="NummerierteAnschlüsse3.svg">
  <defs
     id="defs860" />
  <sodipodi:namedview
     id="base"
     pagecolor="#ffffff"
     bordercolor="#666666"
     borderopacity="1.0"
     inkscape:pageopacity="0.0"
     inkscape:pageshadow="2"
     inkscape:zoom="2.8"
     inkscape:cx="350.0821"
     inkscape:cy="563.35794"
     inkscape:document-units="mm"
     inkscape:current-layer="layer1"
     showgrid="false"
     inkscape:window-width="1920"
     inkscape:window-height="1027"
     inkscape:window-x="-8"
     inkscape:window-y="-8"
     inkscape:window-maximized="1" />
  <metadata
     id="metadata863">
    <rdf:RDF>
      <cc:Work
         rdf:about="">
        <dc:format>image/svg+xml</dc:format>
        <dc:type
           rdf:resource="http://purl.org/dc/dcmitype/StillImage" />
        <dc:title></dc:title>
      </cc:Work>
    </rdf:RDF>
  </metadata>
  <g
     inkscape:label="Ebene 1"
     inkscape:groupmode="layer"
     id="layer1">
    <text
       xml:space="preserve"
       style="font-style:normal;font-weight:normal;font-size:9.78953266px;line-height:1.25;font-family:sans-serif;letter-spacing:0px;word-spacing:0px;fill:#ff3800;fill-opacity:1;stroke:none;stroke-width:0.45888433"
       x="63.598797"
       y="149.11681"
       id="text1424"
       inkscape:export-xdpi="300"
       inkscape:export-ydpi="300"><tspan
         sodipodi:role="line"
         id="tspan1422"
         x="63.598797"
         y="149.11681"
         style="fill:#ff3800;fill-opacity:1;stroke-width:0.45888433">1</tspan></text>
    <text
       xml:space="preserve"
       style="font-style:normal;font-weight:normal;font-size:8.70008373px;line-height:1.25;font-family:sans-serif;letter-spacing:0px;word-spacing:0px;fill:#ff3800;fill-opacity:1;stroke:none;stroke-width:0.40781638"
       x="118.25533"
       y="149.11681"
       id="text1428"
       inkscape:export-xdpi="300"
       inkscape:export-ydpi="300"><tspan
         sodipodi:role="line"
         id="tspan1426"
         x="118.25533"
         y="149.11681"
         style="fill:#ff3800;fill-opacity:1;stroke-width:0.40781638">2</tspan></text>
    <path
       sodipodi:type="star"
       style="opacity:1;fill:#ff3800;fill-opacity:1;stroke:none;stroke-width:0.56499994;stroke-linecap:butt;stroke-linejoin:miter;stroke-miterlimit:4;stroke-dasharray:none;stroke-dashoffset:0;stroke-opacity:1;paint-order:markers fill stroke"
       id="path1430"
       sodipodi:sides="6"
       sodipodi:cx="53.389136"
       sodipodi:cy="120.01265"
       sodipodi:r1="3.6804187"
       sodipodi:r2="1.8402092"
       sodipodi:arg1="0.50959226"
       sodipodi:arg2="1.033191"
       inkscape:flatsided="false"
       inkscape:rounded="0.00253255"
       inkscape:randomized="0"
       d="m 56.601935,121.80804 c -0.0028,0.005 -2.265501,-0.21772 -2.270462,-0.21477 -0.005,0.003 -0.885012,2.09936 -0.890788,2.09944 -0.0058,8e-5 -0.944199,-2.07084 -0.949241,-2.07366 -0.005,-0.003 -2.260598,0.28323 -2.263556,0.27827 -0.003,-0.005 1.321301,-1.85312 1.321221,-1.8589 -8.1e-5,-0.006 -1.375587,-1.81612 -1.372769,-1.82116 0.0028,-0.005 2.265501,0.21772 2.270462,0.21476 0.005,-0.003 0.885012,-2.09935 0.890787,-2.09943 0.0058,-8e-5 0.9442,2.07084 0.949242,2.07366 0.005,0.003 2.260598,-0.28323 2.263556,-0.27827 0.003,0.005 -1.321302,1.85312 -1.321221,1.8589 8.1e-5,0.006 1.375586,1.81611 1.372769,1.82116 z"
       inkscape:transform-center-x="-0.02577286"
       inkscape:transform-center-y="-0.89737374"
       inkscape:export-xdpi="300"
       inkscape:export-ydpi="300" />
    <path
       style="fill:none;stroke:#000000;stroke-width:0.96499997;stroke-linecap:butt;stroke-linejoin:miter;stroke-miterlimit:4;stroke-dasharray:0.96499997,0.96499997;stroke-opacity:1;stroke-dashoffset:0"
       d="m 55.279018,123.22544 10.677825,18.52084"
       id="path1432"
       inkscape:connector-curvature="0"
       sodipodi:nodetypes="cc"
       inkscape:export-xdpi="300"
       inkscape:export-ydpi="300" />
    <path
       style="fill:none;stroke:#000000;stroke-width:0.86500001;stroke-linecap:butt;stroke-linejoin:miter;stroke-miterlimit:4;stroke-dasharray:0.865, 0.865;stroke-dashoffset:0;stroke-opacity:1"
       d="M 57.263391,119.82365 117.26711,144.4866"
       id="path1434"
       inkscape:connector-curvature="0"
       sodipodi:nodetypes="cc"
       inkscape:export-xdpi="300"
       inkscape:export-ydpi="300" />
    <path
       style="fill:none;stroke:#000000;stroke-width:1.165;stroke-linecap:butt;stroke-linejoin:miter;stroke-opacity:1;stroke-miterlimit:4;stroke-dasharray:none"
       d="m 61.326635,152.4241 c 2.582839,0 5.165675,0 7.748513,0 0.472469,0 0.944941,0 1.41741,0 0.063,0 0.125992,0 0.188989,0 0.0315,0 0.07222,0.0223 0.09449,0 0.02228,-0.0223 -0.0099,-0.0646 0,-0.0945 0.02228,-0.0668 0.07222,-0.12217 0.09449,-0.18899 0.01976,-0.0593 0,-0.3019 0,-0.37797 0,-0.31498 0,-0.62996 0,-0.94494 0,-0.0945 -0.04226,-0.19897 0,-0.28348 0.01408,-0.0282 0.07222,0.0223 0.0945,0 0.02228,-0.0223 -0.01408,-0.0663 0,-0.0945 0.01992,-0.0398 0.07457,-0.0547 0.09449,-0.0945 0.02817,-0.0563 -0.04454,-0.14445 0,-0.18899 0.02228,-0.0223 0.07222,0.0223 0.09449,0 0.03115,-0.0311 -0.02278,-0.3096 0,-0.37798 0.01408,-0.0423 0.07457,-0.0546 0.09449,-0.0945 0.01408,-0.0282 0,-0.063 0,-0.0945 0.063,-0.0315 0.139187,-0.0447 0.188989,-0.0945 0.01466,-0.0147 -0.01225,-0.24671 0,-0.28348 0.02228,-0.0668 0.07222,-0.12217 0.09449,-0.18899 0.02215,-0.0665 -0.0259,-0.44657 0,-0.47247 0.02228,-0.0223 0.07222,0.0223 0.0945,0 0.02527,-0.0253 -0.03014,-0.4122 0,-0.47247 0.01992,-0.0398 0.07457,-0.0547 0.09449,-0.0945 0.03019,-0.0604 -0.02535,-0.30192 0,-0.37798 0.02228,-0.0668 0.07222,-0.12217 0.09449,-0.18899 0.01992,-0.0598 -0.02817,-0.13264 0,-0.18899 0.01992,-0.0398 0.07457,-0.0547 0.09449,-0.0945 0.01437,-0.0288 0,-0.24093 0,-0.28348 0,-0.18899 0,-0.37798 0,-0.56697 0,-0.0315 0,-0.063 0,-0.0945 0,-0.0315 -0.02228,-0.0722 0,-0.0945 0.02228,-0.0223 0.08041,0.0282 0.0945,0 0.01725,-0.0345 -0.01839,-0.45407 0,-0.47247 0.0498,-0.0498 0.139184,-0.0447 0.188987,-0.0945 0.0097,-0.01 -0.0079,-0.44891 0,-0.47247 0.01408,-0.0423 0.07457,-0.0547 0.0945,-0.0945 0.01407,-0.0282 0,-0.063 0,-0.0945 0,-0.0952 -0.01741,-0.51471 0,-0.56696 0.09831,-0.29495 0.06299,0.0315 0.188986,-0.0945 0.02228,-0.0223 -0.02228,-0.0722 0,-0.0945 0.02228,-0.0223 0.07222,0.0223 0.09449,0 0.02228,-0.0223 -0.02228,-0.0722 0,-0.0945 0.0097,-0.01 0.448915,0.008 0.472471,0 0.04226,-0.0141 0.05465,-0.0746 0.09449,-0.0945 0.05635,-0.0282 0.132643,0.0282 0.188989,0 0.03984,-0.0199 0.05128,-0.0837 0.09449,-0.0945 0.08342,-0.0208 0.436179,0 0.566965,0 0.125992,0 0.251984,0 0.377976,0 0.0315,0 0.06461,-0.01 0.09449,0 0.06682,0.0223 0.119515,0.0829 0.188989,0.0945 0.124278,0.0207 0.251984,0 0.377976,0 0.063,0 0.127873,-0.0153 0.188987,0 0.06833,0.0171 0.122171,0.0722 0.188989,0.0945 0.05114,0.017 0.345784,0 0.377976,0 0.283482,0 0.566965,0 0.850447,0 0.063,0 0.125992,0 0.188987,0 0.0945,0 0.193839,-0.0299 0.283483,0 0.10774,0.0359 0.181903,0.1382 0.283482,0.18898 0.02817,0.0141 0.063,0 0.09449,0 0.063,0 0.125992,0 0.18899,0 0.07298,0 0.509315,-0.0192 0.566965,0 0.410257,0.13676 -0.06492,0.0945 0.472469,0.0945 0.78745,0 1.5749,0 2.36235,0 0.283483,0 0.566965,0 0.850448,0 0.02246,0 0.356796,0.0106 0.377976,0 0.03984,-0.0199 0.05465,-0.0746 0.09449,-0.0945 0.02817,-0.0141 0.063,0 0.09449,0 0.0945,0 0.18899,0 0.283483,0 0.251984,0 0.50397,0 0.755954,0 0.09449,0 0.193837,0.0299 0.28348,0 0.107741,-0.0359 0.181906,-0.1382 0.283483,-0.18898 0.02817,-0.0141 0.06461,0.01 0.0945,0 0.06681,-0.0223 0.125991,-0.063 0.188986,-0.0945 0.09449,0 0.190823,0.0185 0.283483,0 0.06906,-0.0138 0.12066,-0.0774 0.188989,-0.0945 0.08566,-0.0214 0.362699,0 0.472469,0 0.314981,0 0.62996,0 0.944941,0 0.09449,0 0.192624,0.0259 0.283482,0 0.135443,-0.0387 0.241319,-0.15483 0.377976,-0.18899 0.12223,-0.0306 0.251984,0 0.377976,0 0.063,0 0.125992,0 0.188989,0 0.472469,0 0.944938,0 1.41741,0 1.511903,0 3.023809,0 4.535715,0 0.09449,0 0.198964,0.0423 0.28348,0 0.02817,-0.0141 -0.02228,-0.0722 0,-0.0945 0.02228,-0.0223 0.06461,0.01 0.0945,0 0.06682,-0.0223 0.120658,-0.0774 0.188986,-0.0945 0.06112,-0.0153 0.125992,0 0.18899,0 0.09449,0 0.188986,0 0.283482,0 0.314979,0 0.62996,0 0.944941,0 0.09449,0 0.188987,0 0.28348,0 0.0315,0 0.063,0 0.0945,0 0.0315,0 0.06632,0.0141 0.09449,0 0.03984,-0.0199 0.05465,-0.0746 0.09449,-0.0945 0.03202,-0.016 0.550217,0 0.661459,0 0.535466,0 1.070933,0 1.606399,0 0.314981,0 0.62996,0 0.944941,0 0.125992,0 0.251984,0 0.377976,0 0.0315,0 0.06461,0.01 0.09449,0 0.06682,-0.0223 0.119925,-0.0807 0.188989,-0.0945 0.09266,-0.0185 0.188997,0 0.283487,0 0.18899,0 0.37798,0 0.56696,0 0.62996,0 1.25992,0 1.88988,0 1.07094,0 2.14187,0 3.2128,0 0.28348,0 0.56697,0 0.85045,0 0.063,0 0.12599,0 0.18899,0 0.0315,0 0.0639,-0.008 0.0945,0 0.0966,0.0242 0.18685,0.0703 0.28348,0.0945 0.0643,0.0161 0.23181,-0.0258 0.28348,0 0.0399,0.0199 0.0513,0.0837 0.0945,0.0945 0.0917,0.0229 0.18899,0 0.28348,0 0.063,0 0.12923,-0.0199 0.18899,0 0.0423,0.0141 0.0546,0.0746 0.0945,0.0945 0.0585,0.0293 0.35002,-0.028 0.37798,0 0.0223,0.0223 -0.01,0.0646 0,0.0945 0.0223,0.0668 0.063,0.12599 0.0945,0.18899 0.0315,0.063 0.0554,0.13038 0.0945,0.18899 0.0494,0.0741 0.16081,0.10447 0.18898,0.18898 0.0228,0.0684 -0.0311,0.34683 0,0.37798 0.0498,0.0498 0.13919,0.0447 0.18899,0.0945 0.0446,0.0445 -0.0282,0.13265 0,0.18899 0.0199,0.0398 0.0837,0.0513 0.0945,0.0945 0.0209,0.0834 0,0.43617 0,0.56696 0,0.37798 0,0.75595 0,1.13393 0,1.10243 0,2.20486 0,3.30729 0,0.15749 0,0.31498 0,0.47247 0,0.0315 0.0223,0.0722 0,0.0945 -0.0498,0.0498 -0.13919,0.0447 -0.18899,0.0945 -0.0445,0.0445 0.0199,0.12922 0,0.18899 -0.0223,0.0668 -0.0722,0.12217 -0.0945,0.18898 -0.0217,0.065 0.0279,0.22773 0,0.28349 -0.0199,0.0398 -0.0746,0.0547 -0.0945,0.0945 -0.0144,0.0288 0,0.24093 0,0.28348 0,0.18899 0,0.37798 0,0.56697 0,0.0845 -0.0151,0.44235 0,0.47247 0.0886,0.17728 0.12122,0.0404 0.28348,0.0945 0.0423,0.0141 0.0547,0.0746 0.0945,0.0945 0.0288,0.0144 0.24092,0 0.28348,0 0.22049,0 0.44097,0 0.66146,0 3.0868,0 6.17361,0 9.26041,0 0.53547,0 1.07094,0 1.6064,0 0.15749,0 0.31498,0 0.47248,0 0.0315,0 0.063,0 0.0945,0 0.0315,0 0.0663,0.0141 0.0945,0 0.0399,-0.0199 0.0546,-0.0746 0.0945,-0.0945 0.0282,-0.0141 0.063,0 0.0945,0 0.063,0 0.12599,0 0.18899,0 0.15749,0 0.31498,0 0.47247,0 0.0315,0 0.0722,0.0223 0.0945,0 0.0223,-0.0223 -0.0223,-0.0722 0,-0.0945 0.0223,-0.0223 0.063,0 0.0945,0 0.063,0 0.12599,0 0.18899,0 0.0315,0 0.063,0 0.0945,0 0.0315,0 0.0945,-0.0315 0.0945,0 0,0.0315 -0.063,0 -0.0945,0 -0.18899,0 -0.37798,0 -0.56697,0 -0.72445,0 -1.44891,0 -2.17336,0 -1.70089,0 -3.40179,0 -5.10268,0 -0.50397,0 -1.00793,0 -1.5119,0 -0.18899,0 -0.37798,0 -0.56697,0 -0.0315,0 -0.063,0 -0.0945,0 -0.0315,0 -0.0663,0.0141 -0.0945,0 -0.10157,-0.0508 -0.1819,-0.1382 -0.28348,-0.18899 -0.0282,-0.0141 -0.063,0 -0.0945,0 -0.0315,0 -0.063,0 -0.0945,0 -0.22049,0 -0.44098,0 -0.66146,0 -0.0315,0 -0.063,0 -0.0945,0 -0.0315,0 -0.0663,0.0141 -0.0945,0 -0.0398,-0.0199 -0.0522,-0.0804 -0.0945,-0.0945 -0.0508,-0.0169 -0.29797,0 -0.37797,0 -0.28348,0 -0.56697,0 -0.85045,0 -0.18899,0 -0.37797,0 -0.56696,0 -0.0315,0 -0.063,0 -0.0945,0 -0.0315,0 -0.0663,-0.0141 -0.0945,0 -0.0398,0.0199 -0.0547,0.0746 -0.0945,0.0945 -0.18899,0.0945 0,-0.18899 -0.28349,0 -0.0586,0.0391 -0.0447,0.13918 -0.0945,0.18899 -0.0223,0.0223 -0.0722,-0.0223 -0.0945,0 -0.004,0.004 0,0.34327 0,0.37797 0,0.72446 0,1.44891 0,2.17337 0,0.28348 0,0.56696 0,0.85044 0,0.08 0.0169,0.32718 0,0.37798 -0.0141,0.0423 -0.0746,0.0547 -0.0945,0.0945 -0.0378,0.0756 0.0378,0.20789 0,0.28349 -0.0199,0.0398 -0.0746,0.0547 -0.0945,0.0945 -0.014,0.028 0,0.47557 0,0.56696 0,0.0315 0,0.063 0,0.0945 0,0.0315 0.0223,0.0722 0,0.0945 -0.0223,0.0223 -0.0722,-0.0223 -0.0945,0 -0.0227,0.0227 0.0227,0.35524 0,0.37798 -0.0223,0.0223 -0.0722,-0.0223 -0.0945,0 -0.004,0.004 0,0.34327 0,0.37798 0,0.0621 0.0111,0.35575 0,0.37797 -0.0141,0.0282 -0.0722,-0.0223 -0.0945,0 -0.0446,0.0445 0.0563,0.16081 0,0.18899 -0.0563,0.0282 -0.13265,-0.0282 -0.18899,0 -0.0282,0.0141 0.0141,0.0663 0,0.0945 -0.0419,0.0837 -0.22614,0.19746 -0.28348,0.28348 -0.0391,0.0586 -0.0722,0.12217 -0.0945,0.18899 -0.01,0.0299 0.0223,0.0722 0,0.0945 -0.0223,0.0223 -0.0663,-0.0141 -0.0945,0 -0.0398,0.0199 -0.0574,0.0698 -0.0945,0.0945 -0.0586,0.0391 -0.13038,0.0554 -0.18899,0.0945 -0.0315,0.0315 -0.063,0.063 -0.0945,0.0945 0,0.0315 0.0223,0.0722 0,0.0945 -0.0193,0.0193 -0.24602,-0.0187 -0.28348,0 -0.0398,0.0199 -0.0546,0.0746 -0.0945,0.0945 -0.0282,0.0141 -0.063,0 -0.0945,0 -0.063,0 -0.12599,0 -0.18899,0 -0.18899,0 -0.37797,0 -0.56696,0 -0.0315,0 -0.0722,-0.0223 -0.0945,0 -0.0498,0.0498 -0.0359,0.14992 -0.0945,0.18898 -0.0524,0.0349 -0.12599,0 -0.18899,0 -0.12599,0 -0.25198,0 -0.37797,0 -0.34648,0 -0.69296,0 -1.03944,0 -0.22049,0 -0.44097,0 -0.66146,0 -0.12599,0 -0.25275,0.0139 -0.37797,0 -0.15963,-0.0177 -0.31405,-0.0681 -0.47247,-0.0945 -0.0932,-0.0155 -0.18899,0 -0.28349,0 -0.25198,0 -0.50396,0 -0.75595,0 -0.59846,0 -1.19692,0 -1.79538,0 -0.314989,0 -0.62997,0 -0.944949,0 -0.07214,0 -0.507428,-0.0198 -0.566965,0 -0.06682,0.0223 -0.120658,0.0774 -0.188989,0.0945 -0.04699,0.0117 -0.444561,-0.0186 -0.472469,0 -0.0586,0.0391 -0.04469,0.13919 -0.09449,0.18899 -0.02228,0.0223 -0.063,0 -0.0945,0 -0.09449,0 -0.188987,0 -0.28348,0 -0.881946,0 -1.76389,0 -2.645833,0 -0.220488,0 -0.440973,0 -0.661459,0 -0.0945,0 -0.189939,-0.0134 -0.283482,0 -0.128564,0.0184 -0.248902,0.0802 -0.377976,0.0945 -0.18883,0.021 -1.059116,0 -1.228423,0 -0.472472,0 -0.944941,0 -1.41741,0 -0.157491,0 -0.318731,-0.0342 -0.472472,0 -0.137509,0.0305 -0.242533,0.15029 -0.377976,0.18899 -0.05153,0.0147 -0.679635,0 -0.755951,0 -0.440974,0 -0.881947,0 -1.322917,0 -0.0945,0 -0.188989,0 -0.283483,0 -0.0315,0 -0.07222,-0.0223 -0.09449,0 -0.0498,0.0498 -0.07222,0.12216 -0.0945,0.18898 -0.0099,0.0299 0.02228,0.0722 0,0.0945 -0.02228,0.0223 -0.06299,0 -0.09449,0 -0.09449,0 -0.188989,0 -0.283483,0 -0.724453,0 -1.448908,0 -2.173361,0 -0.913442,0 -1.826887,0 -2.740329,0 -0.314979,0 -0.62996,0 -0.944941,0 -0.125992,0 -0.254984,0.0273 -0.377976,0 -0.165582,-0.0368 -0.306888,-0.1522 -0.472469,-0.18899 -0.122992,-0.0273 -0.251984,0 -0.377976,0 -0.377976,0 -0.755954,0 -1.13393,0 -0.04941,0 -0.353129,0.0124 -0.377976,0 -0.03984,-0.0199 -0.05465,-0.0746 -0.09449,-0.0945 -0.06009,-0.03 -0.394208,0.0261 -0.472472,0 -0.04226,-0.0141 -0.063,-0.063 -0.09449,-0.0945 -0.09449,-0.0315 -0.185812,-0.075 -0.283483,-0.0945 -0.262482,-0.0525 -0.157488,0.0787 -0.472469,0 -0.04321,-0.0108 -0.05223,-0.0804 -0.09449,-0.0945 -0.0848,-0.0598 -0.193839,0.0299 -0.283483,0 -0.06682,-0.0223 -0.122171,-0.0722 -0.188989,-0.0945 -0.05634,-0.0188 -0.475411,0 -0.566965,0 -0.06299,0 -0.125992,0 -0.188986,0 -0.0315,0 -0.06829,0.0175 -0.09449,0 -0.07413,-0.0494 -0.114861,-0.13957 -0.188989,-0.18899 -0.01847,-0.0123 -0.42936,0 -0.472469,0 -0.409475,0 -0.818949,0 -1.228423,0 -0.120629,0 -0.580631,0.0202 -0.661459,0 -0.04321,-0.0108 -0.05223,-0.0804 -0.09449,-0.0945 -0.04326,-0.0144 -0.41973,0 -0.472472,0 -0.283482,0 -0.566965,0 -0.850445,0 -0.346479,0 -0.692957,0 -1.039436,0 -0.0315,0 -0.063,0 -0.09449,0 -0.0315,0 -0.07222,0.0223 -0.09449,0 -0.04454,-0.0445 0.04454,-0.14445 0,-0.18899 -0.02228,-0.0223 -0.07222,0.0223 -0.09449,0 -0.02228,-0.0223 0.01408,-0.0663 0,-0.0945 -0.01992,-0.0399 -0.08041,-0.0522 -0.0945,-0.0945 -0.01992,-0.0598 0.04454,-0.14444 0,-0.18899 -0.33427,-0.33427 -0.07713,0.43007 -0.283483,-0.18899 -0.01992,-0.0598 0,-0.12599 0,-0.18898 0,-0.0315 0,-0.063 0,-0.0945 0,-0.063 -0.03494,-0.13657 0,-0.18899 0.230185,-0.34527 0.13833,0.10132 0.283483,-0.18899 0.01437,-0.0288 0,-0.24092 0,-0.28347 0,-1.38504 0,-2.35314 0,-3.59078 0,-0.22049 0,-0.44097 0,-0.66146 0,-0.0315 -0.02228,-0.0722 0,-0.0945 0.02228,-0.0223 0.07222,0.0223 0.0945,0 0.0097,-0.01 -0.0079,-0.44892 0,-0.47247 0.116766,-0.3503 0.09449,0.11518 0.09449,-0.18899 0,-0.0315 0,-0.063 0,-0.0945 0,-0.0315 -0.02228,-0.0722 0,-0.0945 0.02228,-0.0223 0.07222,0.0223 0.09449,0 0.02228,-0.0223 -0.01408,-0.0663 0,-0.0945 0.01992,-0.0399 0.08041,-0.0522 0.09449,-0.0945 0.02281,-0.0684 -0.03115,-0.34682 0,-0.37797 0.02228,-0.0223 0.07222,0.0223 0.09449,0 0.04725,-0.0473 -0.04725,-0.23624 0,-0.28349 0.02228,-0.0223 0.063,0 0.09449,0"
       id="path1436"
       inkscape:connector-curvature="0" />
  </g>
</svg>
