<?xml version="1.0" encoding="UTF-8" standalone="no"?>
<!-- Created with Inkscape (http://www.inkscape.org/) -->

<svg
   xmlns:dc="http://purl.org/dc/elements/1.1/"
   xmlns:cc="http://creativecommons.org/ns#"
   xmlns:rdf="http://www.w3.org/1999/02/22-rdf-syntax-ns#"
   xmlns:svg="http://www.w3.org/2000/svg"
   xmlns="http://www.w3.org/2000/svg"
   xmlns:sodipodi="http://sodipodi.sourceforge.net/DTD/sodipodi-0.dtd"
   xmlns:inkscape="http://www.inkscape.org/namespaces/inkscape"
   width="210mm"
   height="297mm"
   viewBox="0 0 210 297"
   version="1.1"
   id="svg8"
   inkscape:version="0.92.3 (2405546, 2018-03-11)"
   sodipodi:docname="FromTo.svg">
  <defs
     id="defs2">
    <marker
       inkscape:stockid="TriangleOutM"
       orient="auto"
       refY="0.0"
       refX="0.0"
       id="TriangleOutM"
       style="overflow:visible"
       inkscape:isstock="true">
      <path
         id="path1040"
         d="M 5.77,0.0 L -2.88,5.0 L -2.88,-5.0 L 5.77,0.0 z "
         style="fill-rule:evenodd;stroke:#000000;stroke-width:1pt;stroke-opacity:1;fill:#000000;fill-opacity:1"
         transform="scale(0.4)" />
    </marker>
    <marker
       inkscape:stockid="TriangleOutS"
       orient="auto"
       refY="0.0"
       refX="0.0"
       id="TriangleOutS"
       style="overflow:visible"
       inkscape:isstock="true">
      <path
         id="path1043"
         d="M 5.77,0.0 L -2.88,5.0 L -2.88,-5.0 L 5.77,0.0 z "
         style="fill-rule:evenodd;stroke:#000000;stroke-width:1pt;stroke-opacity:1;fill:#000000;fill-opacity:1"
         transform="scale(0.2)" />
    </marker>
  </defs>
  <sodipodi:namedview
     id="base"
     pagecolor="#ffffff"
     bordercolor="#666666"
     borderopacity="1.0"
     inkscape:pageopacity="0.0"
     inkscape:pageshadow="2"
     inkscape:zoom="1.4"
     inkscape:cx="243.46833"
     inkscape:cy="572.23365"
     inkscape:document-units="mm"
     inkscape:current-layer="layer1"
     showgrid="false"
     showguides="true"
     inkscape:window-width="1920"
     inkscape:window-height="1027"
     inkscape:window-x="-8"
     inkscape:window-y="-8"
     inkscape:window-maximized="1" />
  <metadata
     id="metadata5">
    <rdf:RDF>
      <cc:Work
         rdf:about="">
        <dc:format>image/svg+xml</dc:format>
        <dc:type
           rdf:resource="http://purl.org/dc/dcmitype/StillImage" />
        <dc:title></dc:title>
      </cc:Work>
    </rdf:RDF>
  </metadata>
  <g
     inkscape:label="Ebene 1"
     inkscape:groupmode="layer"
     id="layer1">
    <rect
       style="opacity:1;fill:none;fill-opacity:1;stroke:#0c0c0c;stroke-width:0.66500002;stroke-linecap:butt;stroke-linejoin:miter;stroke-miterlimit:4;stroke-dasharray:none;stroke-dashoffset:0;stroke-opacity:1;paint-order:markers fill stroke"
       id="rect817"
       width="11.893495"
       height="4.2763124"
       x="53.798546"
       y="121.87106" />
    <rect
       style="opacity:1;fill:none;fill-opacity:1;stroke:#0c0c0c;stroke-width:0.66500002;stroke-linecap:butt;stroke-linejoin:miter;stroke-miterlimit:4;stroke-dasharray:none;stroke-dashoffset:0;stroke-opacity:1;paint-order:markers fill stroke"
       id="rect817-4"
       width="11.893495"
       height="4.2763124"
       x="-143.32387"
       y="71.48497"
       transform="rotate(-89.798022)" />
    <rect
       style="opacity:1;fill:none;fill-opacity:1;stroke:#0c0c0c;stroke-width:0.66500002;stroke-linecap:butt;stroke-linejoin:miter;stroke-miterlimit:4;stroke-dasharray:none;stroke-dashoffset:0;stroke-opacity:1;paint-order:markers fill stroke"
       id="rect817-41"
       width="11.893495"
       height="4.2763124"
       x="31.56739"
       y="123.73312" />
    <path
       style="fill:none;stroke:#000000;stroke-width:0.26458332px;stroke-linecap:butt;stroke-linejoin:miter;stroke-opacity:1"
       d="m 43.656249,125.68229 c 0.724456,0 1.448909,0 2.173365,0 0.14174,0 0.28348,0 0.425222,0 0.0315,0 0.063,0 0.09449,0 0.01574,0 0.03197,0.004 0.04725,0 0.04832,-0.0121 0.09291,-0.0375 0.141743,-0.0472 0.03088,-0.006 0.06525,0.0117 0.09449,0 0.05272,-0.0211 0.09095,-0.0691 0.14174,-0.0945 0.456308,-0.22815 -0.08811,0.0609 0.236236,-0.0472 0.02114,-0.007 0.02733,-0.0373 0.04725,-0.0472 0.04455,-0.0223 0.09291,-0.0375 0.141743,-0.0473 0.03089,-0.006 0.06632,0.0141 0.09449,0 0.03984,-0.0199 0.05465,-0.0746 0.09449,-0.0945 0.0378,-0.0189 0.103944,0.0189 0.141742,0 0.01992,-0.01 0.02733,-0.0373 0.04725,-0.0472 0.01408,-0.007 0.03197,0.004 0.04725,0 0.04832,-0.0121 0.09342,-0.0352 0.14174,-0.0473 0.01527,-0.004 0.03316,0.007 0.04725,0 0.01992,-0.01 0.02733,-0.0373 0.04725,-0.0472 0.02148,-0.0107 0.225933,0.003 0.236233,0 0.02162,-0.005 0.02733,-0.0373 0.04725,-0.0472 0.01408,-0.007 0.0315,0 0.04725,0 0.01574,-0.0157 0.02733,-0.0373 0.04725,-0.0473 0.02999,-0.015 0.220917,0.0153 0.236236,0 0.0249,-0.0249 0.02236,-0.0696 0.04725,-0.0945 0.01114,-0.0111 0.03316,0.007 0.04725,0 0.01992,-0.01 0.02733,-0.0373 0.04725,-0.0472 0.01408,-0.007 0.03316,0.007 0.04725,0 0.01992,-0.01 0.02611,-0.0402 0.04725,-0.0472 0.02988,-0.01 0.06632,0.0141 0.0945,0 0.01408,-0.007 -0.01114,-0.0361 0,-0.0473 0.01114,-0.0111 0.0315,0 0.04725,0 0.0315,0 0.06632,0.0141 0.09449,0 0.01408,-0.007 -0.01114,-0.0361 0,-0.0472 0.01114,-0.0111 0.03316,0.007 0.04725,0 0.01992,-0.01 0.02611,-0.0402 0.04725,-0.0472 0.02988,-0.01 0.06632,0.0141 0.0945,0 0.03984,-0.0199 0.05743,-0.0698 0.09449,-0.0945 0.0131,-0.009 0.0315,0 0.04725,0 0.04725,0 0.09692,0.0149 0.14174,0 0,-0.0744 -0.01408,-0.0583 0.0945,-0.0945 0.01495,-0.005 0.03197,0.004 0.04725,0 0.04831,-0.0121 0.09342,-0.0352 0.14174,-0.0473 0.01529,-0.004 0.03316,0.007 0.04725,0 0.01992,-0.01 0.02733,-0.0373 0.04725,-0.0472 0.01407,-0.007 0.03316,0.007 0.04725,0 0.01992,-0.01 0.02733,-0.0373 0.04725,-0.0472 0.01408,-0.007 0.03414,0.009 0.04725,0 0.03706,-0.0247 0.05465,-0.0746 0.09449,-0.0945 0.04851,-0.0243 0.13467,0.0136 0.188989,0 0.477367,-0.11934 -0.03412,0.0171 0.188987,-0.0945 0.02817,-0.0141 0.07222,0.0223 0.0945,0 0.01114,-0.0111 -0.01114,-0.0361 0,-0.0472 0.02228,-0.0223 0.06461,0.01 0.09449,0 0.03341,-0.0111 0.06108,-0.0361 0.09449,-0.0472 0.02974,-0.01 0.193649,0 0.236236,0 0.01574,0 0.03611,0.0111 0.04725,0 0.01114,-0.0111 -0.01495,-0.0423 0,-0.0473 0.03439,-0.0114 0.266462,0 0.330729,0 0.251984,0 0.503968,0 0.755951,0 0.110244,0 0.220488,0 0.33073,0 0.0315,0 0.06829,0.0175 0.0945,0 0.0293,-0.0195 0.02233,-0.0696 0.04725,-0.0945 0.02228,-0.0223 0.07222,0.0223 0.09449,0 0.01114,-0.0111 -0.01408,-0.0402 0,-0.0472 0.0378,-0.0189 0.103945,0.0189 0.141743,0 0.01992,-0.01 0.02733,-0.0373 0.04725,-0.0473 0.01408,-0.007 0.03316,0.007 0.04725,0 0.01992,-0.01 0.02733,-0.0373 0.04725,-0.0472 0.02817,-0.0141 0.07222,0.0223 0.09449,0 0.01114,-0.0111 -0.01408,-0.0402 0,-0.0472 0.01111,-0.006 0.157951,0 0.18899,0 0.141739,0 0.283482,0 0.425222,0"
       id="path851"
       inkscape:connector-curvature="0" />
    <path
       style="fill:none;stroke:#000000;stroke-width:0.26458332px;stroke-linecap:butt;stroke-linejoin:miter;stroke-opacity:1"
       d="m 65.72061,123.83966 c 0.110241,0 0.221033,0.011 0.330729,0 0.04955,-0.005 0.09291,-0.0375 0.14174,-0.0472 0.03089,-0.006 0.063,0 0.09449,0 0.141743,0 0.283483,0 0.425226,0 0.314978,0 0.629959,0 0.94494,0 0.157488,0 0.314979,0 0.472469,0 0.07875,0 0.157491,0 0.236236,0 0.01574,0 0.03316,0.007 0.04725,0 0.05079,-0.0254 0.09095,-0.0691 0.14174,-0.0945 0.01408,-0.007 0.0315,0 0.04725,0 0.04725,0 0.0945,0 0.141742,0 0.803198,0 1.606399,0 2.409598,0 0.15749,0 0.314981,0 0.472471,0 0.03378,0 0.259297,0.008 0.28348,0 0.02114,-0.007 0.02733,-0.0373 0.04725,-0.0472 0.01408,-0.007 0.0315,0 0.04725,0 0.0315,0 0.063,0 0.09449,0 0.04578,0 0.25531,0.009 0.283483,0 0.03341,-0.0111 0.06108,-0.0361 0.09449,-0.0473 0.02988,-0.01 0.063,0 0.09449,0 0.09449,0 0.188989,0 0.283482,0 0.01146,0 0.140221,-0.002 0.141743,0 0.01138,0.0114 -0.01138,0.17762 0,0.18899 0.01114,0.0111 0.03611,-0.0111 0.04725,0 0.01114,0.0111 0,0.0315 0,0.0472 0,0.0157 0,0.0315 0,0.0472 0,0.26773 0,0.53547 0,0.8032 0,0.55122 0,1.10243 0,1.65365 0,0.17324 0,0.34648 0,0.51972 0,0.0521 0.0085,0.24952 0,0.28348 -0.0054,0.0216 -0.03729,0.0273 -0.04725,0.0472 -0.0072,0.0144 0,0.12047 0,0.14174 0,0.126 0,0.25199 0,0.37798 0,0.0473 0.01495,0.0969 0,0.14174 -0.007,0.0211 -0.03729,0.0273 -0.04725,0.0473 -0.01138,0.0228 0.0065,0.30487 0,0.33073 -0.0054,0.0216 -0.04021,0.0261 -0.04725,0.0472 -0.0099,0.0299 0,0.063 0,0.0945 0,0.0472 0,0.0945 0,0.14174 0,0.11025 0,0.22049 0,0.33073 0,0.62996 0,1.25992 0,1.88988 0,0.22049 0,0.44097 0,0.66146 0,0.0115 -0.0016,0.14022 0,0.14174 0.02228,0.0223 0.0945,-0.0315 0.0945,0 0,0.0157 -0.0315,0 -0.04725,0"
       id="path853"
       inkscape:connector-curvature="0" />
    <path
       style="fill:none;stroke:#000000;stroke-width:0.26458332px;stroke-linecap:butt;stroke-linejoin:miter;stroke-opacity:1"
       d="m 73.516367,143.63616 c -0.08162,-0.008 -0.03189,0.3 -0.04725,0.33073 -0.06952,0.13904 -0.04725,-0.0733 -0.04725,0.14174 0,0.0326 0.0072,0.17462 0,0.18899 -0.111966,0.22393 -0.09449,0.0539 -0.09449,0.23623 0,0.12599 0,0.25198 0,0.37798 0,0.0315 0,0.063 0,0.0945 0,0.0158 0.007,0.0332 0,0.0473 -0.0099,0.0199 -0.0315,0.0315 -0.04725,0.0472 0,0.0472 0.01146,0.0959 0,0.14174 -0.0054,0.0216 -0.03729,0.0273 -0.04725,0.0472 -0.007,0.0141 0,0.0315 0,0.0472 0,0.0315 0.0099,0.0646 0,0.0945 -0.007,0.0211 -0.04184,0.0256 -0.04725,0.0472 -0.01042,0.0417 0,0.21809 0,0.28348 0,0.0157 0.005,0.0323 0,0.0472 -0.01114,0.0334 -0.03611,0.0611 -0.04725,0.0945 -0.0099,0.0299 0.02228,0.0722 0,0.0945 -0.01114,0.0111 -0.03611,-0.0111 -0.04725,0 -0.02228,0.0223 0.01408,0.0663 0,0.0945 -0.0099,0.0199 -0.03728,0.0273 -0.04725,0.0473 -0.04725,0.0945 0.09449,0 0,0.14174 -0.01953,0.0293 -0.06959,0.0223 -0.09449,0.0472 -0.02363,0.0236 0.02363,0.11812 0,0.14174 -0.01114,0.0111 -0.03611,-0.0111 -0.04725,0 -0.01114,0.0111 0,0.0315 0,0.0472 0,0.0787 0,0.15749 0,0.23623 0,0.0157 0,0.0315 0,0.0473 0,0.0157 0.007,0.0332 0,0.0472 -0.0099,0.0199 -0.03729,0.0273 -0.04725,0.0472 -0.007,0.0141 0,0.0315 0,0.0473 0,0.0315 0.0099,0.0646 0,0.0945 -0.007,0.0211 -0.03729,0.0273 -0.04725,0.0473 -0.007,0.0141 0.007,0.0332 0,0.0472 -0.0098,0.0196 -0.121713,0.12839 -0.14174,0.14174 -0.0293,0.0195 -0.06959,0.0223 -0.09449,0.0472 -0.0249,0.0249 -0.03611,0.0611 -0.04725,0.0945 -0.0099,0.0299 0.02228,0.0722 0,0.0945 -0.01114,0.0111 -0.03611,-0.0111 -0.04725,0 -0.02228,0.0223 0.02817,0.0804 0,0.0945 -0.02817,0.0141 -0.06461,-0.01 -0.09449,0 -0.02114,0.007 -0.02872,0.0349 -0.04725,0.0473 -0.0293,0.0195 -0.06959,0.0223 -0.0945,0.0472 -0.0249,0.0249 -0.02771,0.0652 -0.04725,0.0945 -0.07835,0.11752 -0.01085,0.005 -0.09449,0.0472 -0.01992,0.01 -0.02733,0.0373 -0.04725,0.0472 -0.01408,0.007 -0.0315,0 -0.04725,0 -0.04725,0 -0.09591,-0.0114 -0.141742,0 -0.02162,0.005 -0.02872,0.0349 -0.04725,0.0473 -0.238683,0.15912 -0.0011,2.6e-4 -0.14174,0.0472 -0.03341,0.0111 -0.05996,0.0403 -0.0945,0.0472 -0.09266,0.0185 -0.193836,-0.0299 -0.28348,0 -0.05387,0.018 -0.09095,0.0691 -0.141742,0.0945 -0.02442,0.0122 -0.259411,-0.004 -0.283483,0 -0.04913,0.008 -0.09244,0.0402 -0.14174,0.0472 -0.06236,0.009 -0.125992,0 -0.188989,0 -0.063,0 -0.125992,0 -0.188987,0 -0.236236,0 -0.472471,0 -0.708705,0 -0.456721,0 -0.913442,0 -1.370166,0 -0.14174,0 -0.283479,0 -0.425222,0 -0.04725,0 -0.09631,0.013 -0.14174,0 -0.06772,-0.0193 -0.120661,-0.0774 -0.188989,-0.0945 -0.06111,-0.0153 -0.126251,0.006 -0.188987,0 -0.110905,-0.0101 -0.220048,-0.035 -0.330729,-0.0472 -0.03131,-0.003 -0.063,0 -0.0945,0 -0.063,0 -0.125992,0 -0.188986,0 -0.173239,0 -0.34648,0 -0.519719,0 -0.0579,0 -0.254555,0.0116 -0.283482,0 -0.04136,-0.0165 -0.05313,-0.078 -0.09449,-0.0945 -0.04387,-0.0175 -0.09449,0 -0.14174,0 -0.063,0 -0.126378,0.007 -0.188989,0 -0.07981,-0.009 -0.156421,-0.0384 -0.236236,-0.0473 -0.09826,-0.0109 -0.315857,0 -0.425222,0 -0.125992,0 -0.251984,0 -0.377976,0 -0.02127,0 -0.127362,0.007 -0.141743,0 -0.05079,-0.0254 -0.09095,-0.0691 -0.141739,-0.0945 -0.01408,-0.007 -0.0315,0 -0.04725,0 -0.07874,0 -0.157491,0 -0.236236,0 -0.14174,0 -0.283483,0 -0.425222,0 -0.07875,0 -0.158282,0.0111 -0.236236,0 -0.03486,-0.005 -0.05996,-0.0404 -0.09449,-0.0473 -0.04633,-0.009 -0.09449,0 -0.141742,0 -0.063,0 -0.125992,0 -0.188987,0 -0.283482,0 -0.566965,0 -0.850447,0 -1.401662,0 -2.803322,0 -4.204983,0 -1.023687,0 -2.047373,0 -3.071059,0 -0.283482,0 -0.566962,0 -0.850445,0 -0.110244,0 -0.220488,0 -0.330729,0 -0.063,0 -0.128415,-0.0173 -0.188989,0 -0.0546,0.0156 -0.08714,0.0789 -0.14174,0.0945 -0.06057,0.0173 -0.125992,0 -0.188989,0 -0.063,0 -0.125992,0 -0.188987,0 -0.330729,0 -0.661458,0 -0.992187,0 -0.692957,0 -1.385914,0 -2.078871,0 -0.063,0 -0.125992,0 -0.188987,0 -0.04725,0 -0.09497,-0.007 -0.141742,0 -0.06428,0.009 -0.124707,0.0381 -0.188987,0.0472 -0.04677,0.007 -0.0945,0 -0.141743,0 -0.07874,0 -0.157488,0 -0.236233,0 -0.063,0 -0.126627,-0.009 -0.188989,0 -0.0493,0.007 -0.09262,0.0391 -0.14174,0.0473 -0.04661,0.008 -0.0945,0 -0.141743,0 -0.06299,0 -0.125992,0 -0.188986,0 -0.01574,0 -0.03316,-0.007 -0.04725,0 -0.05079,0.0254 -0.09095,0.0691 -0.141739,0.0945 -0.01405,0.007 -0.263607,0 -0.283483,0 -0.220485,0 -0.44097,0 -0.661458,0 -0.582713,0 -1.165426,0 -1.748139,0 -0.173239,0 -0.346478,0 -0.519719,0 -0.06299,0 -0.126304,-0.006 -0.188986,0 -0.09532,0.01 -0.188079,0.0386 -0.283483,0.0472 -0.07842,0.007 -0.15749,0 -0.236236,0 -0.251984,0 -0.503967,0 -0.755951,0 -0.598464,0 -1.196925,0 -1.795389,0 -0.188986,0 -0.377976,0 -0.566962,0 -0.0945,0 -0.190275,-0.0155 -0.283483,0 -0.09825,0.0164 -0.185232,0.0781 -0.283482,0.0945 -0.09321,0.0155 -0.188989,0 -0.283483,0 -0.251984,0 -0.503967,0 -0.755951,0 -0.09449,0 -0.189458,-0.009 -0.283483,0 -0.06461,0.006 -0.124449,0.0401 -0.188989,0.0472 -0.07826,0.009 -0.157488,0 -0.236233,0 -0.157491,0 -0.314981,0 -0.472472,0 -0.362225,0 -0.724453,0 -1.086681,0 -1.007935,0 -2.015873,0 -3.023809,0 -0.677206,0 -1.354415,0 -2.031622,0 -0.220487,0 -0.440973,0 -0.661458,0 -0.0945,0 -0.188989,0 -0.283482,0 -0.04725,0 -0.09514,0.008 -0.141743,0 -0.04913,-0.008 -0.0929,-0.0375 -0.14174,-0.0472 -0.03089,-0.006 -0.063,0 -0.09449,0 -0.04725,0 -0.0945,0 -0.141743,0 -0.157488,0 -0.314978,0 -0.472469,0 -0.04725,0 -0.09449,0 -0.141742,0 -0.01574,0 -0.03414,0.009 -0.04725,0 -0.03706,-0.0247 -0.05313,-0.078 -0.09449,-0.0945 -0.05849,-0.0234 -0.125992,0 -0.18899,0 -0.173238,0 -0.346477,0 -0.519715,0 -0.063,0 -0.126625,0.009 -0.18899,0 -0.223096,-0.0319 -0.07663,-0.0782 -0.330729,-0.14174 -0.06111,-0.0153 -0.125992,0 -0.188986,0 -0.110244,0 -0.220488,0 -0.330729,0 -0.07875,0 -0.157491,0 -0.236236,0 -0.0315,0 -0.06394,0.008 -0.09449,0 -0.03416,-0.009 -0.06109,-0.0361 -0.0945,-0.0473 -0.0227,-0.008 -0.323781,0 -0.330729,0 -0.04725,0 -0.09541,0.009 -0.14174,0 -0.04884,-0.01 -0.0929,-0.0375 -0.14174,-0.0472 -0.06178,-0.0123 -0.129225,0.0199 -0.188989,0 -0.02114,-0.007 -0.02733,-0.0373 -0.04725,-0.0472 -0.0297,-0.0148 -0.159293,0.0148 -0.18899,0 -0.09684,-0.0484 1.7e-4,-0.12588 -0.09449,-0.18899 -0.02621,-0.0175 -0.06829,0.0175 -0.09449,0 -0.0293,-0.0195 -0.02771,-0.0652 -0.04725,-0.0945 -0.02471,-0.0371 -0.06978,-0.0574 -0.09449,-0.0945 -0.01953,-0.0293 -0.02771,-0.0652 -0.04725,-0.0945 -0.07236,-0.10855 -0.02699,0.0203 -0.141741,-0.0945 -0.01114,-0.0111 0.005,-0.0323 0,-0.0473 -0.01114,-0.0334 -0.0315,-0.063 -0.04725,-0.0945 -0.01575,-0.0315 -0.02771,-0.0652 -0.04725,-0.0945 -0.01235,-0.0185 -0.03489,-0.0287 -0.04725,-0.0472 -0.01575,-0.0315 -0.0315,-0.063 -0.04725,-0.0945 0,-0.0157 0.007,-0.0332 0,-0.0472 -0.02539,-0.0508 -0.0691,-0.091 -0.09449,-0.14174 -0.01575,-0.0472 -0.0315,-0.0945 -0.04725,-0.14174 0,-0.0157 0.005,-0.0323 0,-0.0472 -0.01114,-0.0334 -0.03611,-0.0611 -0.04725,-0.0945 -0.005,-0.0149 0,-0.0315 0,-0.0472 0,-0.063 0,-0.12599 0,-0.18899 0,-0.17324 0,-0.34648 0,-0.51972 0,-0.62996 0,-1.25992 0,-1.88988 0,-0.18899 0,-0.37797 0,-0.56696 0,-0.0443 -0.0112,-0.28594 0,-0.33073 0.01208,-0.0483 0.03517,-0.0934 0.04725,-0.14174 0.028,-0.11199 -0.08399,0.021 0,-0.18899 0.01654,-0.0414 0.07795,-0.0531 0.09449,-0.0945 0.01755,-0.0439 -0.01146,-0.0959 0,-0.14174 0.0108,-0.0432 0.08369,-0.0513 0.09449,-0.0945 0.01146,-0.0458 -0.0093,-0.0954 0,-0.14174 0.0069,-0.0345 0.04034,-0.06 0.04725,-0.0945 0.0093,-0.0463 0,-0.0945 0,-0.14175 0,-0.12599 0,-0.25198 0,-0.37797 0,-0.0315 -0.0117,-0.0652 0,-0.0945 0.02109,-0.0527 0.07889,-0.0871 0.09449,-0.14175 0.01731,-0.0606 -0.0089,-0.12662 0,-0.18898 0.007,-0.0493 0.03748,-0.0929 0.04725,-0.14175 0.0062,-0.0309 -0.0062,-0.0636 0,-0.0945 0.0098,-0.0488 0.03906,-0.0926 0.04725,-0.14174 0.0078,-0.0466 -0.01755,-0.0979 0,-0.14174 0.01654,-0.0414 0.07795,-0.0531 0.09449,-0.0945 0.0031,-0.008 0,-0.31869 0,-0.33072 0,-0.26774 0,-0.53547 0,-0.80321 0,-0.0945 0,-0.18898 0,-0.28348 0,-0.0472 -0.0093,-0.0954 0,-0.14174 0.0098,-0.0488 0.03748,-0.0929 0.04725,-0.14174 0.0062,-0.0309 0,-0.063 0,-0.0945 0,-0.126 0,-0.25199 0,-0.37798 0,-0.31498 0,-0.62996 0,-0.94494 0,-0.99219 0,-1.98438 0,-2.97656 0,-0.31498 0,-0.62996 0,-0.94494 0,-0.0945 0,-0.18899 0,-0.28348 0,-0.063 0.01731,-0.12842 0,-0.18899 -0.0156,-0.0546 -0.07889,-0.0871 -0.09449,-0.14174 -0.01731,-0.0606 0,-0.12599 0,-0.18899 0,-0.0928 0.01089,-0.34899 0,-0.42522 -0.007,-0.0493 -0.03906,-0.0926 -0.04725,-0.14175 -0.01295,-0.0777 0,-0.15749 0,-0.23623 0,-0.15749 0,-0.31498 0,-0.47247 0,-0.48822 0,-0.97644 0,-1.46466 0,-0.61421 0,-1.22842 0,-1.84263 0,-0.0945 0,-0.18899 0,-0.28349 0,-0.0157 -0.01114,-0.0361 0,-0.0472 0.01114,-0.0111 0.03611,0.0111 0.04725,0 0.01114,-0.0111 0,-0.0315 0,-0.0473 0,-0.0315 -0.01409,-0.0663 0,-0.0945 0.007,-0.0141 0.03611,0.0111 0.04725,0 0.02363,-0.0236 -0.02362,-0.11812 0,-0.14175 0.0249,-0.0249 0.06959,-0.0224 0.09449,-0.0472 0.02362,-0.0236 -0.02362,-0.11812 0,-0.14174 0.01114,-0.0111 0.0402,0.0141 0.04725,0 0.04226,-0.0373 -0.02113,-0.0995 0,-0.14174 0.01,-0.0199 0.03729,-0.0273 0.04725,-0.0473 0.007,-0.0141 -0.007,-0.0332 0,-0.0473 0.01,-0.0199 0.03729,-0.0273 0.04725,-0.0472 0.007,-0.0141 -0.007,-0.0332 0,-0.0473 0.0099,-0.0199 0.0402,-0.0261 0.04725,-0.0473 0,-0.21508 -0.02228,-0.003 0.04725,-0.14174 0.01408,-0.0282 -0.02228,-0.0722 0,-0.0945 0.01114,-0.0111 0.03611,0.0111 0.04725,0 0.01114,-0.0111 0,-0.0315 0,-0.0473 0,-0.0157 0,-0.0315 0,-0.0473 0,-0.0491 -0.0065,-0.18575 0,-0.18899 0.02817,-0.0141 0.06632,0.0141 0.0945,0 0.01408,-0.007 -0.01114,-0.0361 0,-0.0472 0.01114,-0.0111 0.0323,0.005 0.04725,0 0.268517,-0.0895 -0.180893,-0.0473 0.377975,-0.0473 0.09449,0 0.18899,0 0.283483,0 0.125992,0 0.252846,-0.0147 0.377976,0 0.144203,0.017 0.281297,0.0753 0.425222,0.0945 0.09366,0.0125 0.190275,-0.0155 0.283483,0 0.09825,0.0164 0.185811,0.075 0.283482,0.0945 0.139843,0.028 0.282927,0.0378 0.425223,0.0473 0.09428,0.006 0.190822,-0.0185 0.283482,0 0.06906,0.0138 0.120661,0.0774 0.188989,0.0945 0.06111,0.0153 0.125992,0 0.188987,0 0.141742,0 0.283482,0 0.425225,0 0.01574,0 0.0315,0 0.04725,0 0.01574,0 0.03611,0.0111 0.04725,0 0.01114,-0.0111 -0.01114,-0.0361 0,-0.0473 0.01138,-0.0114 0.177618,0.0114 0.188987,0 0.01114,-0.0111 -0.01408,-0.0402 0,-0.0472 0.02817,-0.0141 0.07222,0.0223 0.0945,0 0.02228,-0.0223 -0.01408,-0.0663 0,-0.0945 0.01408,-0.0282 0.07222,0.0223 0.09449,0 0.01114,-0.0111 -0.01114,-0.0361 0,-0.0472 0.02228,-0.0223 0.07222,0.0223 0.09449,0 0.01114,-0.0111 -0.01114,-0.0361 0,-0.0472 0.01114,-0.0111 0.03316,0.007 0.04725,0 0.01992,-0.01 0.02611,-0.0402 0.04725,-0.0473 0.03419,-0.0114 0.173414,0.0156 0.188987,0 0.01114,-0.0111 -0.01114,-0.0361 0,-0.0472 0.01138,-0.0114 0.17762,0.0114 0.188989,0 0.01114,-0.0111 0,-0.0315 0,-0.0472 0,-0.0787 -0.01574,-0.0473 0.09449,-0.0473"
       id="path855"
       inkscape:connector-curvature="0" />
    <rect
       style="opacity:1;fill:none;fill-opacity:1;stroke:#0c0c0c;stroke-width:0.66500002;stroke-linecap:butt;stroke-linejoin:miter;stroke-miterlimit:4;stroke-dasharray:none;stroke-dashoffset:0;stroke-opacity:1;paint-order:markers fill stroke"
       id="rect817-6"
       width="11.893495"
       height="4.2763124"
       x="131.2464"
       y="121.95879" />
    <rect
       style="opacity:1;fill:none;fill-opacity:1;stroke:#0c0c0c;stroke-width:0.66500002;stroke-linecap:butt;stroke-linejoin:miter;stroke-miterlimit:4;stroke-dasharray:none;stroke-dashoffset:0;stroke-opacity:1;paint-order:markers fill stroke"
       id="rect817-4-3"
       width="11.893495"
       height="4.2763124"
       x="-143.13857"
       y="148.93265"
       transform="rotate(-89.798022)" />
    <rect
       style="opacity:1;fill:none;fill-opacity:1;stroke:#0c0c0c;stroke-width:0.66500002;stroke-linecap:butt;stroke-linejoin:miter;stroke-miterlimit:4;stroke-dasharray:none;stroke-dashoffset:0;stroke-opacity:1;paint-order:markers fill stroke"
       id="rect817-41-1"
       width="11.893495"
       height="4.2763124"
       x="108.91383"
       y="122.01289" />
    <path
       style="fill:none;stroke:#000000;stroke-width:0.26458332px;stroke-linecap:butt;stroke-linejoin:miter;stroke-opacity:1"
       d="m 120.80833,124.05436 h 10.2526"
       id="path887"
       inkscape:connector-curvature="0" />
    <path
       style="fill:none;stroke:#000000;stroke-width:0.26458332px;stroke-linecap:butt;stroke-linejoin:miter;stroke-opacity:1"
       d="m 143.25067,124.1016 h 7.46503 v 7.41779"
       id="path889"
       inkscape:connector-curvature="0" />
    <path
       style="fill:none;stroke:#000000;stroke-width:0.26458332px;stroke-linecap:butt;stroke-linejoin:miter;stroke-opacity:1"
       d="m 150.66845,143.70912 v 5.00818 h -43.98698 -1.65364 v -24.33221 h 4.01599"
       id="path891"
       inkscape:connector-curvature="0" />
    <path
       style="fill:none;stroke:#000000;stroke-width:1.165;stroke-linecap:butt;stroke-linejoin:miter;stroke-opacity:1;marker-end:url(#TriangleOutM);stroke-miterlimit:4;stroke-dasharray:none"
       d="m 83.579985,135.88765 11.528272,-0.18899"
       id="path893"
       inkscape:connector-curvature="0"
       sodipodi:nodetypes="cc" />
  </g>
</svg>
